# 3ds Max Wavefront OBJ Exporter v0.99 - (c)2007 guruware
# 创建的文件:23.06.2022 13:08:53

#
# object Box001
#

v  -0.5000 -0.5000 -0.5000
v  -0.5000 0.5000 -0.5000
v  0.5000 0.5000 -0.5000
v  0.5000 -0.5000 -0.5000
v  -0.5000 -0.5000 0.5000
v  0.5000 -0.5000 0.5000
v  0.5000 0.5000 0.5000
v  -0.5000 0.5000 0.5000
# 8 vertices

vn 0.0000 0.0000 -1.0000
vn 0.0000 0.0000 1.0000
vn 0.0000 -1.0000 0.0000
vn 1.0000 0.0000 0.0000
vn 0.0000 1.0000 0.0000
vn -1.0000 0.0000 0.0000
# 6 vertex normals

vt 0.6678 0.3322 0.0000
vt 0.6678 0.0010 0.0000
vt 0.9990 0.0010 0.0000
vt 0.9990 0.3322 0.0000
vt 0.3344 0.0010 0.0000
vt 0.6656 0.0010 0.0000
vt 0.6656 0.3322 0.0000
vt 0.3344 0.3322 0.0000
vt 0.0010 0.6678 0.0000
vt 0.3322 0.6678 0.0000
vt 0.3322 0.9990 0.0000
vt 0.0010 0.9990 0.0000
vt 0.5022 0.5016 0.0000
vt 0.8334 0.5016 0.0000
vt 0.8334 0.8327 0.0000
vt 0.5022 0.8327 0.0000
vt 0.0010 0.3344 0.0000
vt 0.3322 0.3344 0.0000
vt 0.3322 0.6656 0.0000
vt 0.0010 0.6656 0.0000
vt 0.0010 0.0010 0.0000
vt 0.3322 0.0010 0.0000
vt 0.3322 0.3322 0.0000
vt 0.0010 0.3322 0.0000
# 24 texture coords

o Box001
g Box001
f 1/1/1 2/2/1 3/3/1 
f 3/3/1 4/4/1 1/1/1 
f 5/5/2 6/6/2 7/7/2 
f 7/7/2 8/8/2 5/5/2 
f 1/9/3 4/10/3 6/11/3 
f 6/11/3 5/12/3 1/9/3 
f 4/13/4 3/14/4 7/15/4 
f 7/15/4 6/16/4 4/13/4 
f 3/17/5 2/18/5 8/19/5 
f 8/19/5 7/20/5 3/17/5 
f 2/21/6 1/22/6 5/23/6 
f 5/23/6 8/24/6 2/21/6 
# 12 faces

